<?xml version="1.0" encoding="utf-8"?>
<!-- Generator: Adobe Illustrator 26.0.1, SVG Export Plug-In . SVG Version: 6.00 Build 0)  -->
<svg version="1.1" id="Capa_1" xmlns="http://www.w3.org/2000/svg" xmlns:xlink="http://www.w3.org/1999/xlink" x="0px" y="0px"
	 viewBox="0 0 485 242" style="enable-background:new 0 0 485 242;" xml:space="preserve">
<style type="text/css">
	.st0{fill:#4A1EE3;}
</style>
<g>
	<rect x="0" y="43.98" class="st0" width="22" height="22"/>
	<rect x="22" y="109.98" class="st0" width="22" height="22"/>
	<rect x="0" y="87.98" class="st0" width="22" height="22"/>
	<rect x="44" y="175.98" class="st0" width="22" height="22"/>
	<rect x="66" y="153.98" class="st0" width="22" height="22"/>
	<rect x="88" y="175.98" class="st0" width="22" height="22"/>
	<rect x="22" y="197.98" class="st0" width="22" height="22"/>
	<rect x="66" y="197.98" class="st0" width="22" height="22"/>
	<rect x="66" y="219.98" class="st0" width="22" height="22"/>
	<rect x="44" y="219.98" class="st0" width="22" height="22"/>
	<rect x="22" y="219.98" class="st0" width="22" height="22"/>
	<rect x="0" y="197.98" class="st0" width="22" height="22"/>
	<rect x="22" y="-0.02" class="st0" width="22" height="22"/>
	<rect x="169" y="21.98" class="st0" width="22" height="22"/>
	<rect x="191" y="-0.02" class="st0" width="22" height="22"/>
	<rect x="213" y="21.98" class="st0" width="22" height="22"/>
	<rect x="169" y="153.98" class="st0" width="22" height="22"/>
	<rect x="125" y="197.98" class="st0" width="22" height="22"/>
	<rect x="125" y="219.98" class="st0" width="22" height="22"/>
	<rect x="191" y="131.98" class="st0" width="22" height="22"/>
	<rect x="169" y="109.98" class="st0" width="22" height="22"/>
	<rect x="147" y="87.98" class="st0" width="22" height="22"/>
	<rect x="257" y="21.98" class="st0" width="22" height="22"/>
	<rect x="301" y="65.98" class="st0" width="22" height="22"/>
	<rect x="279" y="43.98" class="st0" width="22" height="22"/>
	<rect x="419" y="65.98" class="st0" width="22" height="22"/>
	<rect x="375" y="109.98" class="st0" width="22" height="22"/>
	<rect x="397" y="87.98" class="st0" width="22" height="22"/>
	<rect x="257" y="87.98" class="st0" width="22" height="22"/>
	<rect x="279" y="109.98" class="st0" width="22" height="22"/>
	<rect x="301" y="153.98" class="st0" width="22" height="22"/>
	<rect x="323" y="131.98" class="st0" width="22" height="22"/>
	<rect x="345" y="153.98" class="st0" width="22" height="22"/>
	<rect x="279" y="175.98" class="st0" width="22" height="22"/>
	<rect x="323" y="175.98" class="st0" width="22" height="22"/>
	<rect x="301" y="197.98" class="st0" width="22" height="22"/>
	<rect x="191" y="197.98" class="st0" width="22" height="22"/>
	<rect x="213" y="219.98" class="st0" width="22" height="22"/>
	<rect x="257" y="175.98" class="st0" width="22" height="22"/>
	<rect x="110" y="43.98" class="st0" width="22" height="22"/>
	
		<rect x="463" y="153.98" transform="matrix(-1 -4.481361e-11 4.481361e-11 -1 947.9929 329.9575)" class="st0" width="22" height="22"/>
	
		<rect x="441" y="219.98" transform="matrix(-1 -4.497881e-11 4.497881e-11 -1 903.9929 461.9575)" class="st0" width="22" height="22"/>
	
		<rect x="463" y="197.98" transform="matrix(-1 -4.481361e-11 4.481361e-11 -1 947.9929 417.9575)" class="st0" width="22" height="22"/>
	
		<rect x="441" y="109.98" transform="matrix(-1 -4.497881e-11 4.497881e-11 -1 903.9929 241.9574)" class="st0" width="22" height="22"/>
	<rect x="419" y="21.98" class="st0" width="22" height="22"/>
	<rect x="0" y="43.98" class="st0" width="22" height="22"/>
	<rect x="22" y="109.98" class="st0" width="22" height="22"/>
	<rect x="0" y="87.98" class="st0" width="22" height="22"/>
	<rect x="44" y="175.98" class="st0" width="22" height="22"/>
	<rect x="66" y="153.98" class="st0" width="22" height="22"/>
	<rect x="88" y="175.98" class="st0" width="22" height="22"/>
	<rect x="22" y="197.98" class="st0" width="22" height="22"/>
	<rect x="66" y="197.98" class="st0" width="22" height="22"/>
	<rect x="66" y="219.98" class="st0" width="22" height="22"/>
	<rect x="44" y="219.98" class="st0" width="22" height="22"/>
	<rect x="22" y="219.98" class="st0" width="22" height="22"/>
	<rect x="0" y="197.98" class="st0" width="22" height="22"/>
	<rect x="22" y="-0.02" class="st0" width="22" height="22"/>
	<rect x="169" y="21.98" class="st0" width="22" height="22"/>
	<rect x="191" y="-0.02" class="st0" width="22" height="22"/>
	<rect x="213" y="21.98" class="st0" width="22" height="22"/>
	<rect x="169" y="153.98" class="st0" width="22" height="22"/>
	<rect x="125" y="197.98" class="st0" width="22" height="22"/>
	<rect x="125" y="219.98" class="st0" width="22" height="22"/>
	<rect x="191" y="131.98" class="st0" width="22" height="22"/>
	<rect x="169" y="109.98" class="st0" width="22" height="22"/>
	<rect x="147" y="87.98" class="st0" width="22" height="22"/>
	<rect x="257" y="21.98" class="st0" width="22" height="22"/>
	<rect x="301" y="65.98" class="st0" width="22" height="22"/>
	<rect x="279" y="43.98" class="st0" width="22" height="22"/>
	<rect x="419" y="65.98" class="st0" width="22" height="22"/>
	<rect x="375" y="109.98" class="st0" width="22" height="22"/>
	<rect x="397" y="87.98" class="st0" width="22" height="22"/>
	<rect x="257" y="87.98" class="st0" width="22" height="22"/>
	<rect x="279" y="109.98" class="st0" width="22" height="22"/>
	<rect x="301" y="153.98" class="st0" width="22" height="22"/>
	<rect x="323" y="131.98" class="st0" width="22" height="22"/>
	<rect x="345" y="153.98" class="st0" width="22" height="22"/>
	<rect x="279" y="175.98" class="st0" width="22" height="22"/>
	<rect x="323" y="175.98" class="st0" width="22" height="22"/>
	<rect x="301" y="197.98" class="st0" width="22" height="22"/>
	<rect x="191" y="197.98" class="st0" width="22" height="22"/>
	<rect x="213" y="219.98" class="st0" width="22" height="22"/>
	<rect x="257" y="175.98" class="st0" width="22" height="22"/>
	<rect x="110" y="43.98" class="st0" width="22" height="22"/>
	
		<rect x="463" y="153.98" transform="matrix(-1 -4.481361e-11 4.481361e-11 -1 947.9929 329.9575)" class="st0" width="22" height="22"/>
	
		<rect x="441" y="219.98" transform="matrix(-1 -4.497881e-11 4.497881e-11 -1 903.9929 461.9575)" class="st0" width="22" height="22"/>
	
		<rect x="463" y="197.98" transform="matrix(-1 -4.481361e-11 4.481361e-11 -1 947.9929 417.9575)" class="st0" width="22" height="22"/>
	
		<rect x="441" y="109.98" transform="matrix(-1 -4.497881e-11 4.497881e-11 -1 903.9929 241.9574)" class="st0" width="22" height="22"/>
	<rect x="419" y="21.98" class="st0" width="22" height="22"/>
</g>
</svg>
